<?xml version="1.0" encoding="UTF-8" standalone="no"?>
<!DOCTYPE svg PUBLIC "-//W3C//DTD SVG 1.1//EN" "http://www.w3.org/Graphics/SVG/1.1/DTD/svg11.dtd">
<svg width="100%" height="100%" viewBox="0 0 473 476" version="1.1" xmlns="http://www.w3.org/2000/svg" xmlns:xlink="http://www.w3.org/1999/xlink" xml:space="preserve" xmlns:serif="http://www.serif.com/" style="fill-rule:evenodd;clip-rule:evenodd;stroke-linecap:round;stroke-linejoin:round;stroke-miterlimit:1.5;">
    <g transform="matrix(1,0,0,1,-18.5,-24.5)">
        <path d="M443.547,63.154C437.845,44.547 420.881,31.672 401.426,31.186C358.672,30.117 282.428,28.211 225.839,26.796C179.756,25.644 135.026,42.428 101.076,73.612C88.279,85.366 74.747,97.795 62.443,109.097C34.807,134.481 19.326,170.46 19.897,207.981C20.37,239.102 20.964,278.107 21.504,313.655C22.398,372.41 60.723,424.028 116.709,441.878C152.238,453.206 192.148,465.931 225.548,476.58C270.551,490.929 319.799,478.575 352.701,444.684C363.847,433.203 375.491,421.208 386.317,410.057C416.49,378.977 440.392,342.375 456.718,302.252C459.4,295.66 462.137,288.935 464.836,282.302C481.759,240.712 483.816,194.556 470.659,151.625C461.42,121.476 450.931,87.249 443.547,63.154Z" style="fill:rgb(98,0,255);stroke:black;stroke-opacity:0;stroke-width:1px;"/>
    </g>
</svg>
